<svg xmlns="http://www.w3.org/2000/svg" viewBox="0 0 32 32">
  <defs>
    <linearGradient id="bg" x1="0" y1="0" x2="1" y2="1">
      <stop offset="0%" stop-color="#0d0d1a"/>
      <stop offset="100%" stop-color="#0b0b14"/>
    </linearGradient>
    <linearGradient id="sg" x1="0" y1="0" x2="1" y2="1">
      <stop offset="0%" stop-color="#e94560"/>
      <stop offset="100%" stop-color="#ff6b8a"/>
    </linearGradient>
  </defs>
  <rect width="32" height="32" rx="7" fill="url(#bg)"/>
  <!-- Main sparkle -->
  <g transform="translate(14.5, 16.5)">
    <path d="M0 -11 C1.4 -4.5, 4.5 -1.4, 11 0 C4.5 1.4, 1.4 4.5, 0 11 C-1.4 4.5, -4.5 1.4, -11 0 C-4.5 -1.4, -1.4 -4.5, 0 -11Z" fill="url(#sg)"/>
    <!-- Accent sparkle -->
    <path d="M9 -9.5 C9.4 -8, 10.6 -7, 12.2 -6.5 C10.6 -6, 9.4 -5, 9 -3.5 C8.6 -5, 7.4 -6, 5.8 -6.5 C7.4 -7, 8.6 -8, 9 -9.5Z" fill="#ff6b8a" opacity="0.75"/>
    <!-- Tiny dot -->
    <circle cx="-6.5" cy="-10" r="1" fill="#ff6b8a" opacity="0.45"/>
  </g>
</svg>
